<svg width="21" height="21" viewBox="0 0 21 21" fill="none" xmlns="http://www.w3.org/2000/svg">
<path id="Vector" d="M15.2405 0.875183C14.0849 0.749984 12.6342 0.749991 10.8099 0.75L10.7952 0.75H10.7048L10.6901 0.75C8.86576 0.749991 7.41512 0.749984 6.25955 0.875183C5.07274 1.00377 4.07933 1.27395 3.22329 1.8959C2.71392 2.26598 2.26598 2.71392 1.8959 3.22329C1.27395 4.07933 1.00377 5.07274 0.875183 6.25955C0.749984 7.41512 0.749991 8.86576 0.75 10.6901L0.75 10.7048V10.7952L0.75 10.8099C0.749991 12.6342 0.749984 14.0849 0.875183 15.2405C1.00377 16.4273 1.27395 17.4207 1.8959 18.2767C2.26598 18.7861 2.71392 19.234 3.22329 19.6041C4.07933 20.2261 5.07274 20.4962 6.25955 20.6248C7.41511 20.75 8.86573 20.75 10.6901 20.75H10.7047H10.7953H10.8099C12.6342 20.75 14.0849 20.75 15.2405 20.6248C16.4273 20.4962 17.4207 20.2261 18.2767 19.6041C18.7861 19.234 19.234 18.7861 19.6041 18.2767C20.2261 17.4207 20.4962 16.4273 20.6248 15.2405C20.75 14.0849 20.75 12.6343 20.75 10.8099V10.7953V10.7047V10.6901C20.75 8.8658 20.75 7.41511 20.6248 6.25955C20.4962 5.07274 20.2261 4.07933 19.6041 3.22329C19.234 2.71392 18.7861 2.26598 18.2767 1.8959C17.4207 1.27395 16.4273 1.00377 15.2405 0.875183ZM4.39886 3.51393C4.85714 3.18097 5.45833 2.97369 6.47497 2.86355C7.51031 2.75137 8.85279 2.75 10.75 2.75C12.6472 2.75 13.9897 2.75137 15.025 2.86355C16.0417 2.97369 16.6429 3.18097 17.1011 3.51393C17.4407 3.76065 17.7394 4.05928 17.9861 4.39886C18.319 4.85714 18.5263 5.45833 18.6365 6.47497C18.7486 7.51031 18.75 8.85279 18.75 10.75C18.75 12.6472 18.7486 13.9897 18.6365 15.025C18.5263 16.0417 18.319 16.6429 17.9861 17.1011C17.7394 17.4407 17.4407 17.7394 17.1011 17.9861C16.6429 18.319 16.0417 18.5263 15.025 18.6365C13.9897 18.7486 12.6472 18.75 10.75 18.75C8.85279 18.75 7.51031 18.7486 6.47497 18.6365C5.45833 18.5263 4.85714 18.319 4.39886 17.9861C4.05928 17.7394 3.76065 17.4407 3.51393 17.1011C3.18097 16.6429 2.97369 16.0417 2.86355 15.025C2.75137 13.9897 2.75 12.6472 2.75 10.75C2.75 8.85279 2.75137 7.51031 2.86355 6.47497C2.97369 5.45833 3.18097 4.85714 3.51393 4.39886C3.76065 4.05928 4.05928 3.76065 4.39886 3.51393ZM16.4603 9.45395C16.849 9.06168 16.8462 8.42852 16.4539 8.03975C16.0617 7.65097 15.4285 7.65379 15.0397 8.04605L13.2924 9.80902C12.5791 10.5288 12.1026 11.0074 11.7028 11.3285C11.3187 11.6369 11.1035 11.7169 10.9369 11.7381C10.8128 11.754 10.6872 11.754 10.5631 11.7381C10.3965 11.7169 10.1813 11.6369 9.79725 11.3285C9.39741 11.0074 8.92094 10.5288 8.20756 9.80902L6.46025 8.04606C6.07148 7.65379 5.43832 7.65097 5.04605 8.03975C4.65379 8.42852 4.65097 9.06168 5.03975 9.45395L6.81853 11.2487L6.82841 11.2586C7.49024 11.9264 8.04597 12.4872 8.54492 12.8879C9.06984 13.3094 9.6276 13.6351 10.3102 13.7221C10.6022 13.7593 10.8978 13.7593 11.1898 13.7221C11.8724 13.6351 12.4302 13.3094 12.9551 12.8879C13.454 12.4872 14.0097 11.9265 14.6715 11.2587L14.6814 11.2487L16.4603 9.45395Z" fill="#172651" stroke="#172651" stroke-width="0.5" stroke-linecap="round"/>
</svg>
