<svg width="30" height="29" viewBox="0 0 30 29" fill="none" xmlns="http://www.w3.org/2000/svg">
<g id="Vector">
<path fill-rule="evenodd" clip-rule="evenodd" d="M4.32046 10.216C4.0345 10.4655 3.70842 10.7916 3.31783 11.1822L3.27343 11.2266C2.88282 11.6172 2.55673 11.9432 2.30729 12.2292C2.04763 12.5269 1.82539 12.8311 1.67589 13.192C1.329 14.0295 1.329 14.9705 1.67589 15.808C1.82539 16.1689 2.04763 16.4731 2.30729 16.7708C2.55673 17.0568 2.88281 17.3828 3.27342 17.7734L3.31781 17.8178C3.70841 18.2084 4.0345 18.5345 4.32046 18.784C4.61815 19.0436 4.92238 19.2659 5.28329 19.4154C6.12076 19.7622 7.06173 19.7622 7.8992 19.4154C8.26012 19.2659 8.56434 19.0436 8.86203 18.784C9.148 18.5345 9.47407 18.2084 9.86467 17.8178L9.90907 17.7734C10.2997 17.3828 10.6258 17.0568 10.8752 16.7708C11.1349 16.4731 11.3571 16.1689 11.5066 15.808C11.8535 14.9705 11.8535 14.0295 11.5066 13.192C11.3571 12.8311 11.1349 12.5269 10.8752 12.2292C10.6258 11.9432 10.2997 11.6172 9.90907 11.2266L9.86467 11.1822C9.47407 10.7916 9.148 10.4655 8.86203 10.216C8.56434 9.95638 8.26012 9.73414 7.8992 9.58465C7.06173 9.23775 6.12076 9.23775 5.28329 9.58465C4.92238 9.73414 4.61815 9.95638 4.32046 10.216ZM3.39827 13.9055C3.43799 13.8096 3.51509 13.6807 3.71222 13.4547C3.91486 13.2224 4.19537 12.9411 4.61387 12.5226C5.03238 12.1041 5.3136 11.8236 5.54592 11.621C5.77191 11.4238 5.90083 11.3467 5.99672 11.307C6.37739 11.1493 6.8051 11.1493 7.18577 11.307C7.28166 11.3467 7.41058 11.4238 7.63658 11.621C7.86889 11.8236 8.15012 12.1041 8.56862 12.5226C8.98712 12.9411 9.26763 13.2224 9.47027 13.4547C9.6674 13.6807 9.74451 13.8096 9.78423 13.9055C9.9419 14.2861 9.9419 14.7139 9.78423 15.0945C9.74451 15.1904 9.6674 15.3193 9.47027 15.5453C9.26763 15.7776 8.98712 16.0589 8.56862 16.4774C8.15012 16.8959 7.86889 17.1764 7.63658 17.379C7.41058 17.5762 7.28166 17.6533 7.18577 17.693C6.8051 17.8507 6.37739 17.8507 5.99672 17.693C5.90083 17.6533 5.77191 17.5762 5.54592 17.379C5.3136 17.1764 5.03238 16.8959 4.61387 16.4774C4.19537 16.0589 3.91486 15.7776 3.71222 15.5453C3.51509 15.3193 3.43799 15.1904 3.39827 15.0945C3.24059 14.7139 3.24059 14.2861 3.39827 13.9055Z" fill="#FCFDFE"/>
<path fill-rule="evenodd" clip-rule="evenodd" d="M13.1088 1.42772C12.8228 1.67716 12.4968 2.00324 12.1062 2.39385L12.0618 2.43824C11.6712 2.82884 11.3451 3.15492 11.0956 3.44089C10.836 3.73858 10.6137 4.0428 10.4642 4.40372C10.1173 5.24119 10.1173 6.18216 10.4642 7.01963C10.6137 7.38054 10.836 7.68477 11.0956 7.98246C11.3451 8.26843 11.6711 8.5945 12.0618 8.9851L12.1061 9.02949C12.4967 9.4201 12.8228 9.74619 13.1088 9.99563C13.4065 10.2553 13.7107 10.4775 14.0716 10.627C14.9091 10.9739 15.8501 10.9739 16.6875 10.627C17.0484 10.4775 17.3527 10.2553 17.6504 9.99563C17.9363 9.74619 18.2624 9.42011 18.653 9.02949L18.6974 8.9851C19.088 8.5945 19.4141 8.26843 19.6635 7.98246C19.9232 7.68477 20.1454 7.38054 20.2949 7.01963C20.6418 6.18216 20.6418 5.24119 20.2949 4.40372C20.1454 4.04281 19.9232 3.73858 19.6635 3.44089C19.4141 3.15492 19.088 2.82885 18.6974 2.43825L18.653 2.39385C18.2624 2.00324 17.9363 1.67716 17.6504 1.42772C17.3527 1.16806 17.0484 0.945815 16.6875 0.796321C15.8501 0.449428 14.9091 0.449429 14.0716 0.79632C13.7107 0.945814 13.4065 1.16806 13.1088 1.42772ZM12.1866 5.11715C12.2263 5.02126 12.3034 4.89234 12.5005 4.66634C12.7032 4.43403 12.9837 4.1528 13.4022 3.7343C13.8207 3.3158 14.1019 3.03529 14.3342 2.83265C14.5602 2.63552 14.6892 2.55841 14.785 2.5187C15.1657 2.36102 15.5934 2.36102 15.9741 2.51869C16.07 2.55841 16.1989 2.63552 16.4249 2.83265C16.6572 3.03529 16.9384 3.3158 17.3569 3.7343C17.7754 4.1528 18.056 4.43403 18.2586 4.66634C18.4557 4.89234 18.5328 5.02126 18.5726 5.11715C18.7302 5.49782 18.7302 5.92553 18.5726 6.3062C18.5328 6.40209 18.4557 6.53101 18.2586 6.757C18.056 6.98932 17.7754 7.27054 17.3569 7.68905C16.9384 8.10755 16.6572 8.38806 16.4249 8.5907C16.1989 8.78782 16.07 8.86493 15.9741 8.90465C15.5934 9.06233 15.1657 9.06233 14.785 8.90465C14.6892 8.86493 14.5602 8.78782 14.3342 8.5907C14.1019 8.38806 13.8207 8.10755 13.4022 7.68905C12.9837 7.27054 12.7032 6.98932 12.5005 6.757C12.3034 6.53101 12.2263 6.40209 12.1866 6.3062C12.0289 5.92553 12.0289 5.49782 12.1866 5.11715Z" fill="#FCFDFE"/>
<path fill-rule="evenodd" clip-rule="evenodd" d="M13.1088 19.0044C12.8228 19.2538 12.4967 19.5799 12.1061 19.9705L12.0618 20.0149C11.6711 20.4055 11.3451 20.7316 11.0956 21.0175C10.836 21.3152 10.6137 21.6195 10.4642 21.9804C10.1173 22.8178 10.1173 23.7588 10.4642 24.5963C10.6137 24.9572 10.836 25.2614 11.0956 25.5591C11.3451 25.8451 11.6711 26.1712 12.0617 26.5617L12.1061 26.6061C12.4967 26.9967 12.8228 27.3228 13.1088 27.5723C13.4065 27.8319 13.7107 28.0542 14.0716 28.2037C14.9091 28.5506 15.8501 28.5506 16.6875 28.2037C17.0484 28.0542 17.3527 27.8319 17.6504 27.5723C17.9363 27.3228 18.2624 26.9968 18.653 26.6061L18.6974 26.5618C19.088 26.1712 19.4141 25.8451 19.6635 25.5591C19.9232 25.2614 20.1454 24.9572 20.2949 24.5963C20.6418 23.7588 20.6418 22.8178 20.2949 21.9804C20.1454 21.6195 19.9232 21.3152 19.6635 21.0175C19.4141 20.7316 19.088 20.4055 18.6974 20.0149L18.653 19.9705C18.2624 19.5799 17.9363 19.2538 17.6504 19.0044C17.3527 18.7447 17.0484 18.5225 16.6875 18.373C15.8501 18.0261 14.9091 18.0261 14.0716 18.373C13.7107 18.5225 13.4065 18.7447 13.1088 19.0044ZM12.1866 22.6938C12.2263 22.5979 12.3034 22.469 12.5005 22.243C12.7032 22.0107 12.9837 21.7295 13.4022 21.311C13.8207 20.8925 14.1019 20.6119 14.3342 20.4093C14.5602 20.2122 14.6892 20.1351 14.785 20.0953C15.1657 19.9377 15.5934 19.9377 15.9741 20.0953C16.07 20.1351 16.1989 20.2122 16.4249 20.4093C16.6572 20.6119 16.9384 20.8925 17.3569 21.311C17.7754 21.7295 18.056 22.0107 18.2586 22.243C18.4557 22.469 18.5328 22.5979 18.5726 22.6938C18.7302 23.0745 18.7302 23.5022 18.5726 23.8829C18.5328 23.9787 18.4557 24.1077 18.2586 24.3337C18.056 24.566 17.7754 24.8472 17.3569 25.2657C16.9384 25.6842 16.6572 25.9647 16.4249 26.1674C16.1989 26.3645 16.07 26.4416 15.9741 26.4813C15.5934 26.639 15.1657 26.639 14.785 26.4813C14.6892 26.4416 14.5602 26.3645 14.3342 26.1674C14.1019 25.9647 13.8207 25.6842 13.4022 25.2657C12.9837 24.8472 12.7032 24.566 12.5005 24.3337C12.3034 24.1077 12.2263 23.9787 12.1866 23.8829C12.0289 23.5022 12.0289 23.0745 12.1866 22.6938Z" fill="#FCFDFE"/>
<path fill-rule="evenodd" clip-rule="evenodd" d="M21.8971 10.216C21.6111 10.4655 21.2851 10.7916 20.8945 11.1822L20.8501 11.2266C20.4595 11.6172 20.1334 11.9432 19.8839 12.2292C19.6243 12.5269 19.402 12.8311 19.2525 13.192C18.9057 14.0295 18.9057 14.9705 19.2525 15.808C19.402 16.1689 19.6243 16.4731 19.8839 16.7708C20.1334 17.0568 20.4595 17.3828 20.8501 17.7734L20.8945 17.8178C21.2851 18.2084 21.6111 18.5345 21.8971 18.784C22.1948 19.0436 22.499 19.2659 22.8599 19.4154C23.6974 19.7622 24.6384 19.7622 25.4759 19.4154C25.8368 19.2659 26.141 19.0436 26.4387 18.784C26.7247 18.5345 27.0507 18.2084 27.4413 17.8178L27.4857 17.7734C27.8763 17.3828 28.2024 17.0568 28.4519 16.7708C28.7115 16.4731 28.9338 16.1689 29.0833 15.808C29.4301 14.9705 29.4301 14.0295 29.0833 13.192C28.9338 12.8311 28.7115 12.5269 28.4519 12.2292C28.2024 11.9432 27.8763 11.6172 27.4857 11.2266L27.4413 11.1822C27.0507 10.7916 26.7247 10.4655 26.4387 10.216C26.141 9.95638 25.8368 9.73414 25.4759 9.58465C24.6384 9.23776 23.6974 9.23775 22.8599 9.58465C22.499 9.73414 22.1948 9.95638 21.8971 10.216ZM20.9749 13.9055C21.0146 13.8096 21.0917 13.6807 21.2889 13.4547C21.4915 13.2224 21.772 12.9411 22.1905 12.5226C22.609 12.1041 22.8903 11.8236 23.1226 11.621C23.3486 11.4238 23.4775 11.3467 23.5734 11.307C23.954 11.1493 24.3818 11.1493 24.7624 11.307C24.8583 11.3467 24.9872 11.4238 25.2132 11.621C25.4455 11.8236 25.7268 12.1041 26.1453 12.5226C26.5638 12.9411 26.8443 13.2224 27.0469 13.4547C27.2441 13.6807 27.3212 13.8096 27.3609 13.9055C27.5186 14.2861 27.5186 14.7139 27.3609 15.0945C27.3212 15.1904 27.2441 15.3193 27.0469 15.5453C26.8443 15.7776 26.5638 16.0589 26.1453 16.4774C25.7268 16.8959 25.4455 17.1764 25.2132 17.379C24.9872 17.5762 24.8583 17.6533 24.7624 17.693C24.3818 17.8507 23.954 17.8507 23.5734 17.693C23.4775 17.6533 23.3486 17.5762 23.1226 17.379C22.8903 17.1764 22.609 16.8959 22.1905 16.4774C21.772 16.0589 21.4915 15.7776 21.2889 15.5453C21.0917 15.3193 21.0146 15.1904 20.9749 15.0945C20.8172 14.7139 20.8172 14.2861 20.9749 13.9055Z" fill="#FCFDFE"/>
<path fill-rule="evenodd" clip-rule="evenodd" d="M4.32046 10.216C4.0345 10.4655 3.70842 10.7916 3.31783 11.1822L3.27343 11.2266C2.88282 11.6172 2.55673 11.9432 2.30729 12.2292C2.04763 12.5269 1.82539 12.8311 1.67589 13.192C1.329 14.0295 1.329 14.9705 1.67589 15.808C1.82539 16.1689 2.04763 16.4731 2.30729 16.7708C2.55673 17.0568 2.88281 17.3828 3.27342 17.7734L3.31781 17.8178C3.70841 18.2084 4.0345 18.5345 4.32046 18.784C4.61815 19.0436 4.92238 19.2659 5.28329 19.4154C6.12076 19.7622 7.06173 19.7622 7.8992 19.4154C8.26012 19.2659 8.56434 19.0436 8.86203 18.784C9.148 18.5345 9.47407 18.2084 9.86467 17.8178L9.90907 17.7734C10.2997 17.3828 10.6258 17.0568 10.8752 16.7708C11.1349 16.4731 11.3571 16.1689 11.5066 15.808C11.8535 14.9705 11.8535 14.0295 11.5066 13.192C11.3571 12.8311 11.1349 12.5269 10.8752 12.2292C10.6258 11.9432 10.2997 11.6172 9.90907 11.2266L9.86467 11.1822C9.47407 10.7916 9.148 10.4655 8.86203 10.216C8.56434 9.95638 8.26012 9.73414 7.8992 9.58465C7.06173 9.23775 6.12076 9.23775 5.28329 9.58465C4.92238 9.73414 4.61815 9.95638 4.32046 10.216ZM3.39827 13.9055C3.43799 13.8096 3.51509 13.6807 3.71222 13.4547C3.91486 13.2224 4.19537 12.9411 4.61387 12.5226C5.03238 12.1041 5.3136 11.8236 5.54592 11.621C5.77191 11.4238 5.90083 11.3467 5.99672 11.307C6.37739 11.1493 6.8051 11.1493 7.18577 11.307C7.28166 11.3467 7.41058 11.4238 7.63658 11.621C7.86889 11.8236 8.15012 12.1041 8.56862 12.5226C8.98712 12.9411 9.26763 13.2224 9.47027 13.4547C9.6674 13.6807 9.74451 13.8096 9.78423 13.9055C9.9419 14.2861 9.9419 14.7139 9.78423 15.0945C9.74451 15.1904 9.6674 15.3193 9.47027 15.5453C9.26763 15.7776 8.98712 16.0589 8.56862 16.4774C8.15012 16.8959 7.86889 17.1764 7.63658 17.379C7.41058 17.5762 7.28166 17.6533 7.18577 17.693C6.8051 17.8507 6.37739 17.8507 5.99672 17.693C5.90083 17.6533 5.77191 17.5762 5.54592 17.379C5.3136 17.1764 5.03238 16.8959 4.61387 16.4774C4.19537 16.0589 3.91486 15.7776 3.71222 15.5453C3.51509 15.3193 3.43799 15.1904 3.39827 15.0945C3.24059 14.7139 3.24059 14.2861 3.39827 13.9055Z" stroke="#FCFDFE"/>
<path fill-rule="evenodd" clip-rule="evenodd" d="M13.1088 1.42772C12.8228 1.67716 12.4968 2.00324 12.1062 2.39385L12.0618 2.43824C11.6712 2.82884 11.3451 3.15492 11.0956 3.44089C10.836 3.73858 10.6137 4.0428 10.4642 4.40372C10.1173 5.24119 10.1173 6.18216 10.4642 7.01963C10.6137 7.38054 10.836 7.68477 11.0956 7.98246C11.3451 8.26843 11.6711 8.5945 12.0618 8.9851L12.1061 9.02949C12.4967 9.4201 12.8228 9.74619 13.1088 9.99563C13.4065 10.2553 13.7107 10.4775 14.0716 10.627C14.9091 10.9739 15.8501 10.9739 16.6875 10.627C17.0484 10.4775 17.3527 10.2553 17.6504 9.99563C17.9363 9.74619 18.2624 9.42011 18.653 9.02949L18.6974 8.9851C19.088 8.5945 19.4141 8.26843 19.6635 7.98246C19.9232 7.68477 20.1454 7.38054 20.2949 7.01963C20.6418 6.18216 20.6418 5.24119 20.2949 4.40372C20.1454 4.04281 19.9232 3.73858 19.6635 3.44089C19.4141 3.15492 19.088 2.82885 18.6974 2.43825L18.653 2.39385C18.2624 2.00324 17.9363 1.67716 17.6504 1.42772C17.3527 1.16806 17.0484 0.945815 16.6875 0.796321C15.8501 0.449428 14.9091 0.449429 14.0716 0.79632C13.7107 0.945814 13.4065 1.16806 13.1088 1.42772ZM12.1866 5.11715C12.2263 5.02126 12.3034 4.89234 12.5005 4.66634C12.7032 4.43403 12.9837 4.1528 13.4022 3.7343C13.8207 3.3158 14.1019 3.03529 14.3342 2.83265C14.5602 2.63552 14.6892 2.55841 14.785 2.5187C15.1657 2.36102 15.5934 2.36102 15.9741 2.51869C16.07 2.55841 16.1989 2.63552 16.4249 2.83265C16.6572 3.03529 16.9384 3.3158 17.3569 3.7343C17.7754 4.1528 18.056 4.43403 18.2586 4.66634C18.4557 4.89234 18.5328 5.02126 18.5726 5.11715C18.7302 5.49782 18.7302 5.92553 18.5726 6.3062C18.5328 6.40209 18.4557 6.53101 18.2586 6.757C18.056 6.98932 17.7754 7.27054 17.3569 7.68905C16.9384 8.10755 16.6572 8.38806 16.4249 8.5907C16.1989 8.78782 16.07 8.86493 15.9741 8.90465C15.5934 9.06233 15.1657 9.06233 14.785 8.90465C14.6892 8.86493 14.5602 8.78782 14.3342 8.5907C14.1019 8.38806 13.8207 8.10755 13.4022 7.68905C12.9837 7.27054 12.7032 6.98932 12.5005 6.757C12.3034 6.53101 12.2263 6.40209 12.1866 6.3062C12.0289 5.92553 12.0289 5.49782 12.1866 5.11715Z" stroke="#FCFDFE"/>
<path fill-rule="evenodd" clip-rule="evenodd" d="M13.1088 19.0044C12.8228 19.2538 12.4967 19.5799 12.1061 19.9705L12.0618 20.0149C11.6711 20.4055 11.3451 20.7316 11.0956 21.0175C10.836 21.3152 10.6137 21.6195 10.4642 21.9804C10.1173 22.8178 10.1173 23.7588 10.4642 24.5963C10.6137 24.9572 10.836 25.2614 11.0956 25.5591C11.3451 25.8451 11.6711 26.1712 12.0617 26.5617L12.1061 26.6061C12.4967 26.9967 12.8228 27.3228 13.1088 27.5723C13.4065 27.8319 13.7107 28.0542 14.0716 28.2037C14.9091 28.5506 15.8501 28.5506 16.6875 28.2037C17.0484 28.0542 17.3527 27.8319 17.6504 27.5723C17.9363 27.3228 18.2624 26.9968 18.653 26.6061L18.6974 26.5618C19.088 26.1712 19.4141 25.8451 19.6635 25.5591C19.9232 25.2614 20.1454 24.9572 20.2949 24.5963C20.6418 23.7588 20.6418 22.8178 20.2949 21.9804C20.1454 21.6195 19.9232 21.3152 19.6635 21.0175C19.4141 20.7316 19.088 20.4055 18.6974 20.0149L18.653 19.9705C18.2624 19.5799 17.9363 19.2538 17.6504 19.0044C17.3527 18.7447 17.0484 18.5225 16.6875 18.373C15.8501 18.0261 14.9091 18.0261 14.0716 18.373C13.7107 18.5225 13.4065 18.7447 13.1088 19.0044ZM12.1866 22.6938C12.2263 22.5979 12.3034 22.469 12.5005 22.243C12.7032 22.0107 12.9837 21.7295 13.4022 21.311C13.8207 20.8925 14.1019 20.6119 14.3342 20.4093C14.5602 20.2122 14.6892 20.1351 14.785 20.0953C15.1657 19.9377 15.5934 19.9377 15.9741 20.0953C16.07 20.1351 16.1989 20.2122 16.4249 20.4093C16.6572 20.6119 16.9384 20.8925 17.3569 21.311C17.7754 21.7295 18.056 22.0107 18.2586 22.243C18.4557 22.469 18.5328 22.5979 18.5726 22.6938C18.7302 23.0745 18.7302 23.5022 18.5726 23.8829C18.5328 23.9787 18.4557 24.1077 18.2586 24.3337C18.056 24.566 17.7754 24.8472 17.3569 25.2657C16.9384 25.6842 16.6572 25.9647 16.4249 26.1674C16.1989 26.3645 16.07 26.4416 15.9741 26.4813C15.5934 26.639 15.1657 26.639 14.785 26.4813C14.6892 26.4416 14.5602 26.3645 14.3342 26.1674C14.1019 25.9647 13.8207 25.6842 13.4022 25.2657C12.9837 24.8472 12.7032 24.566 12.5005 24.3337C12.3034 24.1077 12.2263 23.9787 12.1866 23.8829C12.0289 23.5022 12.0289 23.0745 12.1866 22.6938Z" stroke="#FCFDFE"/>
<path fill-rule="evenodd" clip-rule="evenodd" d="M21.8971 10.216C21.6111 10.4655 21.2851 10.7916 20.8945 11.1822L20.8501 11.2266C20.4595 11.6172 20.1334 11.9432 19.8839 12.2292C19.6243 12.5269 19.402 12.8311 19.2525 13.192C18.9057 14.0295 18.9057 14.9705 19.2525 15.808C19.402 16.1689 19.6243 16.4731 19.8839 16.7708C20.1334 17.0568 20.4595 17.3828 20.8501 17.7734L20.8945 17.8178C21.2851 18.2084 21.6111 18.5345 21.8971 18.784C22.1948 19.0436 22.499 19.2659 22.8599 19.4154C23.6974 19.7622 24.6384 19.7622 25.4759 19.4154C25.8368 19.2659 26.141 19.0436 26.4387 18.784C26.7247 18.5345 27.0507 18.2084 27.4413 17.8178L27.4857 17.7734C27.8763 17.3828 28.2024 17.0568 28.4519 16.7708C28.7115 16.4731 28.9338 16.1689 29.0833 15.808C29.4301 14.9705 29.4301 14.0295 29.0833 13.192C28.9338 12.8311 28.7115 12.5269 28.4519 12.2292C28.2024 11.9432 27.8763 11.6172 27.4857 11.2266L27.4413 11.1822C27.0507 10.7916 26.7247 10.4655 26.4387 10.216C26.141 9.95638 25.8368 9.73414 25.4759 9.58465C24.6384 9.23776 23.6974 9.23775 22.8599 9.58465C22.499 9.73414 22.1948 9.95638 21.8971 10.216ZM20.9749 13.9055C21.0146 13.8096 21.0917 13.6807 21.2889 13.4547C21.4915 13.2224 21.772 12.9411 22.1905 12.5226C22.609 12.1041 22.8903 11.8236 23.1226 11.621C23.3486 11.4238 23.4775 11.3467 23.5734 11.307C23.954 11.1493 24.3818 11.1493 24.7624 11.307C24.8583 11.3467 24.9872 11.4238 25.2132 11.621C25.4455 11.8236 25.7268 12.1041 26.1453 12.5226C26.5638 12.9411 26.8443 13.2224 27.0469 13.4547C27.2441 13.6807 27.3212 13.8096 27.3609 13.9055C27.5186 14.2861 27.5186 14.7139 27.3609 15.0945C27.3212 15.1904 27.2441 15.3193 27.0469 15.5453C26.8443 15.7776 26.5638 16.0589 26.1453 16.4774C25.7268 16.8959 25.4455 17.1764 25.2132 17.379C24.9872 17.5762 24.8583 17.6533 24.7624 17.693C24.3818 17.8507 23.954 17.8507 23.5734 17.693C23.4775 17.6533 23.3486 17.5762 23.1226 17.379C22.8903 17.1764 22.609 16.8959 22.1905 16.4774C21.772 16.0589 21.4915 15.7776 21.2889 15.5453C21.0917 15.3193 21.0146 15.1904 20.9749 15.0945C20.8172 14.7139 20.8172 14.2861 20.9749 13.9055Z" stroke="#FCFDFE"/>
</g>
</svg>
