<svg width="80" height="80" viewBox="0 0 80 80" fill="none" xmlns="http://www.w3.org/2000/svg">
<g id="Frame 1">
<rect id="Rectangle 6" width="80" height="80" rx="20" fill="#D9D9D9"/>
<g id="Vector">
<path d="M25.5968 25.504C24.7149 25.504 24 26.2189 24 27.1008C24 27.9827 24.7149 28.6976 25.5968 28.6976H55.4032C56.2851 28.6976 57 27.9827 57 27.1008C57 26.2189 56.2851 25.504 55.4032 25.504H25.5968Z" fill="#E22F42"/>
<path d="M25.5968 38.2782C24.7149 38.2782 24 38.9931 24 39.875C24 40.7569 24.7149 41.4718 25.5968 41.4718H38.371C39.2528 41.4718 39.9677 40.7569 39.9677 39.875C39.9677 38.9931 39.2528 38.2782 38.371 38.2782H25.5968Z" fill="#E22F42"/>
<path d="M25.5968 51.0524C24.7149 51.0524 24 51.7673 24 52.6492C24 53.5311 24.7149 54.246 25.5968 54.246H55.4032C56.2851 54.246 57 53.5311 57 52.6492C57 51.7673 56.2851 51.0524 55.4032 51.0524H25.5968Z" fill="#E22F42"/>
</g>
</g>
</svg>
